<svg id="_Layer_" data-name="&lt;Layer&gt;" xmlns="http://www.w3.org/2000/svg" viewBox="0 0 2760 1840"><defs><style>.cls-1{fill:#bdd1ff;}.cls-2{fill:#283689;}.cls-3{fill:#8fa6ef;}.cls-4{fill:#505aba;}.cls-5{fill:#2b478b;}.cls-6{fill:#778de8;}.cls-7{fill:#e27227;}.cls-8{fill:#1c3870;}.cls-9{fill:#8c9df4;}.cls-10{fill:#1b376d;}.cls-11{fill:#f99746;}.cls-12{opacity:0.7;}.cls-13{fill:#d86713;}.cls-14{fill:#a8d29f;}.cls-15{fill:#82b378;}.cls-16{opacity:0.1;}.cls-17{fill:#dde7fe;}.cls-18{fill:#ebf2f9;}.cls-19{fill:#d5e5fb;}.cls-20{fill:#e2eefd;}.cls-21{fill:#9db0f4;}.cls-22{fill:#afcdfb;}.cls-23{fill:#aec3ff;}.cls-24{fill:#819dea;}.cls-25{fill:#c5d7ff;}.cls-26{fill:#d36d1a;}.cls-27{fill:#f49540;}.cls-28{fill:#ffa255;}.cls-29{fill:#f8fcff;}.cls-30{opacity:0.5;}.cls-31{fill:#ed7d2b;}.cls-32{fill:#131375;}.cls-33{fill:#060633;}.cls-34{fill:#829ce8;}.cls-35{fill:#ed975d;}.cls-36{fill:#ffb27d;}.cls-37{fill:#a9453d;}.cls-38{fill:#7a96e5;}.cls-39{fill:#233862;}.cls-40{fill:#ef873a;}.cls-41{fill:#f77d48;}.cls-42{fill:#15156d;}.cls-43{fill:#fa7267;}.cls-44{fill:#17152b;}.cls-45{opacity:0.3;}.cls-46{fill:#ea9963;}.cls-47{fill:#6980e2;}.cls-48{fill:#9fb1ff;}.cls-49{fill:#182d4c;}.cls-50{fill:#ffb583;}.cls-51{fill:#ea6c2d;}.cls-52{fill:#95c38b;}.cls-53{fill:#b5453c;}.cls-54{fill:#efcbab;}.cls-55{fill:#699dee;}.cls-56{fill:#548ee2;}</style></defs><title>serviec 4</title><path class="cls-1" d="M2562.42,1481c-6.17,11.3-12.37,21.35-18.19,30.06l-.51.77a90.63,90.63,0,0,1-75.27,40.08c-161.8,0-720.25,0-894.31-.08,0,0-913.16-2.59-1198.81-3.52a141.63,141.63,0,0,1-129-84.38c-25.72-58-53.61-141.64-56.84-236.4-5.14-150.34,51.77-328.74,277.8-477.56C661.52,622,455.13,537.62,609.58,395.25c177.5-163.6,371.21,17.39,568.6-56.8,34.87-13.09,69.86-34.17,104.89-66.52a385.2,385.2,0,0,1,64.47-47.83q5.32-3.16,10.75-6.18a449.43,449.43,0,0,1,43-20.87q14.91-6.27,30.37-11.61,24.55-8.48,50.36-14.65a629.83,629.83,0,0,1,75.07-13.17c11.18-1.3,22.44-2.3,33.77-3.07,220.54-14.82,468.74,68.52,596.83,190.32,25.78,24.54,143,151.45,50.62,325.9-58.37,110.13,186.11,215.32,273,341.1,54.36,78.68,82.18,151.09,93.18,215.61C2623.31,1337.67,2593.11,1424.84,2562.42,1481Z"/><path class="cls-2" d="M1014.68,1227.79l-4.74-.62a50.37,50.37,0,0,1,22.78-33.56c17.55-11.1,11.56-45.8,11.49-46.15l4.71-.84a90.42,90.42,0,0,1,.92,20.34c-1,14.71-6.07,25.32-14.56,30.69A46.14,46.14,0,0,0,1014.68,1227.79Z"/><path class="cls-2" d="M1045.26,1228.63c-.12-.22-11.64-21.86,9.15-35,17.17-10.86,1.93-44.59,1.77-44.93l4.35-2a87.93,87.93,0,0,1,6,20c2.42,14.72-.89,25.42-9.6,30.92-17,10.79-7.9,28-7.51,28.68Z"/><path class="cls-3" d="M2562.66,1532.08l-1.19,2.67c-.81,1.78-1.6,3.53-2.4,5.25-5.37,11.6-10.73,22-15.79,31.2-.17.32-.35.62-.52.94-16.83,30.39-45.07,48.58-75.26,48.58l-331.08,0h-19.11c-76.45,0-156.26,0-231.7,0h-22.53c-121.35,0-229.09,0-289.9-.06,0,0-305.8-1-618.83-2.15l-15.89-.06-266.55-1-32.28-.11c-108-.38-202-.74-265.26-1-44.27-.17-85.14-25.37-111.48-66.65-1.38-2.17-2.73-4.38-4-6.65a185.49,185.49,0,0,1-13.5-29c-25.72-70.35-53.6-171.71-56.83-286.58h2415C2622.11,1359.32,2592.92,1464,2562.66,1532.08Z"/><polygon class="cls-4" points="2039.7 1468.9 681.72 1468.9 818.59 1329.48 1920.42 1329.48 2039.7 1468.9"/><rect class="cls-5" x="681.72" y="1468.9" width="1357.98" height="17.81"/><rect class="cls-5" x="826.42" y="1358.72" width="1082.34" height="4.75"/><rect class="cls-5" x="789.73" y="1387.85" width="1148.06" height="4.76"/><rect class="cls-5" x="759.15" y="1420.04" width="1209.21" height="4.75"/><rect class="cls-5" x="831.9" y="1337.25" width="48.93" height="14.68"/><rect class="cls-5" x="1206.74" y="1337.25" width="48.94" height="14.68"/><rect class="cls-5" x="1285.44" y="1337.25" width="48.94" height="14.68"/><rect class="cls-5" x="1494.65" y="1337.25" width="48.93" height="14.68"/><rect class="cls-5" x="1567.42" y="1337.25" width="48.94" height="14.68"/><rect class="cls-5" x="1646.12" y="1337.25" width="48.93" height="14.68"/><path class="cls-5" d="M2544.49,1227.48h-9.61c-21.69-31.71-40.49-33.18-76.93-36-11.21-.86-23.92-1.85-38.8-3.86-33.19-4.46-44.1-22.27-56.73-42.9-5.72-9.34-11.62-19-20.25-28.75-26.49-30-86-21.22-86.64-21.13l-1.22-7.92c2.61-.4,64.46-9.53,93.86,23.73,9.09,10.3,15.47,20.71,21.09,29.89,12.5,20.43,21.55,35.18,51,39.14,14.65,2,27.24,2.95,38.34,3.81C2498.2,1186.56,2519.42,1188.2,2544.49,1227.48Z"/><rect class="cls-6" x="2015.66" y="1043.91" width="238.64" height="238.64" rx="29.46"/><path class="cls-7" d="M2216.79,1157.86a81.77,81.77,0,0,1-1,12.6c-.15,1-.32,2-.52,3a80.55,80.55,0,0,1-6.67,20.09c-.28.6-.58,1.21-.9,1.79a82.1,82.1,0,0,1-21.83,26.62c-.49.39-1,.78-1.48,1.15a81.44,81.44,0,0,1-31.6,14.71h0l-2.1.45h0a78.48,78.48,0,0,1-9,1.24c-1,.09-2,.16-3,.19h0c-1.26.07-2.52.1-3.79.1a81.8,81.8,0,0,1-25-3.9c-1.23-.39-2.44-.8-3.65-1.26a77,77,0,0,1-8.21-3.6l-1.78-.91a82.34,82.34,0,0,1-28.51-25.35c-.36-.52-.72-1-1.07-1.56a81.75,81.75,0,0,1-11.18-25.16c-.31-1.24-.6-2.49-.85-3.76a80.37,80.37,0,0,1-1.35-9.37c-.06-.79-.13-1.57-.17-2.36v0c-.08-1.55-.13-3.1-.13-4.67a82,82,0,0,1,3.71-24.45c.21-.67.43-1.36.67-2a81.76,81.76,0,0,1,18-29.83c.44-.46.86-.91,1.32-1.34a81.75,81.75,0,0,1,28.8-18.83c.63-.25,1.26-.48,1.89-.7a82.53,82.53,0,0,1,41-3.61c.78.13,1.55.26,2.33.43.55.1,1.1.21,1.65.34,1.08.23,2.16.48,3.22.77a81.4,81.4,0,0,1,31.73,16.35c.49.4,1,.8,1.44,1.22a82.06,82.06,0,0,1,22.11,31.11c.26.61.5,1.22.72,1.85a80.24,80.24,0,0,1,4.31,16.71c.16,1.08.3,2.16.4,3.25v0A79.22,79.22,0,0,1,2216.79,1157.86Z"/><path class="cls-8" d="M2185.9,1221.94c-.49.39-1,.78-1.48,1.15l-10.91-12.16-1.25-1.39-22.42-25-1.25-1.39-25.32-28.22-1.25-1.39-25-27.87-1.25-1.4-20.39-22.72c.44-.46.86-.91,1.32-1.34l20.46,22.82,1.25,1.39,25,27.87,1.25,1.39,25.32,28.22,1.25,1.39,22.43,25,1.24,1.39Z"/><path class="cls-8" d="M2208.63,1193.53c-.28.6-.58,1.21-.9,1.79l-7.5-8.36-1.25-1.39-22.42-25-1.26-1.39L2150,1131l-1.25-1.39-25-27.88-1.24-1.39-17-18.93c.63-.25,1.26-.48,1.89-.7l16.49,18.39,1.25,1.39,25,27.86,1.25,1.39,25.32,28.22,1.25,1.4,22.42,25,1.25,1.39Z"/><path class="cls-8" d="M2215.91,1145.84c.16,1.08.3,2.16.4,3.25l-12-13.4-1.24-1.39-25.33-28.23-1.24-1.39-24.1-26.85c1.08.23,2.16.48,3.22.77l22.27,24.83,1.25,1.39,25.32,28.23,1.24,1.39Z"/><path class="cls-8" d="M2152.81,1237.8l-2.1.45h0l-3.4-3.81-1.24-1.39-22.44-25-1.25-1.39-25.3-28.22-1.25-1.4-25-27.86-1.26-1.4-12.88-14.37c.21-.67.43-1.36.67-2l13.6,15.17,1.26,1.39,25,27.87,1.24,1.39,25.32,28.22,1.24,1.39,22.44,25,1.25,1.39Z"/><path class="cls-8" d="M2150.73,1077.49l-25.59,23-1.4,1.24-25.32,22.72-1.39,1.25-24.83,22.27-1.39,1.25-17.55,15.73c-.06-.79-.13-1.57-.17-2.36v0l16.46-14.75,1.39-1.24,24.84-22.28,1.39-1.24,25.33-22.72,1.39-1.24,24.51-22C2149.18,1077.19,2150,1077.32,2150.73,1077.49Z"/><path class="cls-8" d="M2188.77,1096.17l-9.65,8.65-1.4,1.25-26.34,23.63L2150,1131l-25.33,22.71-1.39,1.25-24.83,22.27-1.38,1.25-21.47,19.24-1.39,1.25-6.49,5.83c-.36-.52-.72-1-1.07-1.56l6.32-5.66,1.39-1.25,21.46-19.25,1.39-1.24,24.82-22.27,1.39-1.25,25.33-22.71,1.39-1.26,26.35-23.63,1.39-1.25,9.46-8.48C2187.82,1095.35,2188.29,1095.75,2188.77,1096.17Z"/><path class="cls-8" d="M2211.6,1129.13l-5.92,5.31-1.39,1.25L2178,1159.32l-1.39,1.25-25.33,22.71-1.39,1.25L2125,1206.8l-1.39,1.25-21.45,19.24-1.39,1.25L2098,1231l-1.78-.91,3.29-3,1.39-1.25,21.46-19.24,1.4-1.25,24.83-22.27,1.39-1.25,25.32-22.71,1.4-1.26,26.35-23.62,1.39-1.25,6.44-5.77C2211.14,1127.89,2211.38,1128.5,2211.6,1129.13Z"/><path class="cls-8" d="M2215.82,1170.46c-.15,1-.32,2-.52,3l-13.68,12.28-1.39,1.24-25.33,22.72-1.39,1.25-24.82,22.27-1.4,1.24-5.63,5c-1,.09-2,.16-3,.19l7.38-6.63,1.39-1.24,24.82-22.27,1.4-1.25,25.32-22.72,1.39-1.24Z"/><path class="cls-8" d="M2109.86,1235.88c-1.23-.39-2.44-.8-3.65-1.26l-5.44-6.08-1.26-1.39-25.31-28.22-1.24-1.39-17.5-19.5c-.31-1.24-.6-2.49-.85-3.76l19.74,22,1.24,1.39,25.31,28.22,1.26,1.39Z"/><rect class="cls-9" x="2015.66" y="806.03" width="238.64" height="238.64" rx="29.46"/><path class="cls-7" d="M2216.79,920a81.68,81.68,0,0,1-1,12.6c-.15,1-.32,2-.52,3a80.82,80.82,0,0,1-6.67,20.09c-.28.6-.58,1.2-.9,1.79a82.16,82.16,0,0,1-21.83,26.61c-.49.39-1,.78-1.48,1.16a81.28,81.28,0,0,1-31.6,14.7h0l-2.1.45h0a78.48,78.48,0,0,1-9,1.24c-1,.09-2,.17-3,.19h0c-1.26.08-2.52.1-3.79.1a81.5,81.5,0,0,1-25-3.9c-1.23-.38-2.44-.8-3.65-1.26a76.94,76.94,0,0,1-8.21-3.59l-1.78-.92a82.34,82.34,0,0,1-28.51-25.35c-.36-.51-.72-1-1.07-1.55a81.7,81.7,0,0,1-11.18-25.17c-.31-1.24-.6-2.49-.85-3.75a80.37,80.37,0,0,1-1.35-9.37c-.06-.79-.13-1.58-.17-2.37h0c-.08-1.56-.13-3.11-.13-4.68a81.89,81.89,0,0,1,3.71-24.44c.21-.68.43-1.37.67-2a81.84,81.84,0,0,1,18-29.83c.44-.45.86-.9,1.32-1.34a81.75,81.75,0,0,1,28.8-18.83c.63-.25,1.26-.47,1.89-.7a82.53,82.53,0,0,1,41-3.61c.78.13,1.55.27,2.33.43.55.1,1.1.21,1.65.34,1.08.24,2.16.49,3.22.78a81.38,81.38,0,0,1,31.73,16.34c.49.4,1,.8,1.44,1.23a82,82,0,0,1,22.11,31.1c.26.61.5,1.23.72,1.85a80.4,80.4,0,0,1,4.31,16.71c.16,1.08.3,2.17.4,3.26h0A79.22,79.22,0,0,1,2216.79,920Z"/><path class="cls-8" d="M2185.9,984.06c-.49.39-1,.78-1.48,1.16l-10.91-12.17-1.25-1.39-22.42-25-1.25-1.39L2123.27,917l-1.25-1.39-25-27.87-1.25-1.4-20.39-22.72c.44-.45.86-.9,1.32-1.34l20.46,22.82,1.25,1.39,25,27.87,1.25,1.39L2150,944l1.25,1.39,22.43,25,1.24,1.39Z"/><path class="cls-8" d="M2208.63,955.66c-.28.6-.58,1.2-.9,1.79l-7.5-8.37-1.25-1.39-22.42-25-1.26-1.39L2150,893.08l-1.25-1.39-25-27.88-1.24-1.39-17-18.93c.63-.25,1.26-.47,1.89-.7l16.49,18.39,1.25,1.39,25,27.87,1.25,1.39,25.32,28.22,1.25,1.39,22.42,25,1.25,1.39Z"/><path class="cls-8" d="M2215.91,908c.16,1.08.3,2.17.4,3.26l-12-13.4-1.24-1.4-25.33-28.23-1.24-1.39L2152.38,840c1.08.24,2.16.49,3.22.78l22.27,24.82,1.25,1.39,25.32,28.23,1.24,1.39Z"/><path class="cls-8" d="M2152.81,999.92l-2.1.45h0l-3.4-3.81-1.24-1.39-22.44-25-1.25-1.39-25.3-28.22-1.25-1.4-25-27.86-1.26-1.4-12.88-14.36c.21-.68.43-1.37.67-2l13.6,15.17,1.26,1.39,25,27.87,1.24,1.39,25.32,28.22,1.24,1.39,22.44,25,1.25,1.39Z"/><path class="cls-8" d="M2150.73,839.61l-25.59,23-1.4,1.24-25.32,22.72-1.39,1.25-24.83,22.27-1.39,1.25L2053.26,927c-.06-.79-.13-1.58-.17-2.37h0l16.46-14.76,1.39-1.24,24.84-22.28,1.39-1.24,25.33-22.72,1.39-1.24,24.51-22C2149.18,839.31,2150,839.45,2150.73,839.61Z"/><path class="cls-8" d="M2188.77,858.3l-9.65,8.64-1.4,1.25-26.34,23.64-1.39,1.25-25.33,22.71-1.39,1.25-24.83,22.27-1.38,1.25-21.47,19.24-1.39,1.25-6.49,5.83c-.36-.51-.72-1-1.07-1.55l6.32-5.66,1.39-1.26,21.46-19.25,1.39-1.24L2122,915.65l1.39-1.25,25.33-22.71,1.39-1.25,26.35-23.64,1.39-1.25,9.46-8.48C2187.82,857.47,2188.29,857.87,2188.77,858.3Z"/><path class="cls-8" d="M2211.6,891.25l-5.92,5.31-1.39,1.26L2178,921.44l-1.39,1.25-25.33,22.71-1.39,1.25L2125,968.92l-1.39,1.25-21.45,19.24-1.39,1.26-2.77,2.48-1.78-.92,3.29-3,1.39-1.26,21.46-19.24,1.4-1.25,24.83-22.27L2150,944l25.32-22.71,1.4-1.25,26.35-23.63,1.39-1.25,6.44-5.77C2211.14,890,2211.38,890.63,2211.6,891.25Z"/><path class="cls-8" d="M2215.82,932.58c-.15,1-.32,2-.52,3l-13.68,12.27-1.39,1.24L2174.9,971.8l-1.39,1.25-24.82,22.27-1.4,1.24-5.63,5.05c-1,.09-2,.17-3,.19l7.38-6.63,1.39-1.24,24.82-22.27,1.4-1.25L2199,947.69l1.39-1.24Z"/><path class="cls-8" d="M2109.86,998c-1.23-.38-2.44-.8-3.65-1.26l-5.44-6.07-1.26-1.39-25.31-28.23-1.24-1.38-17.5-19.51c-.31-1.24-.6-2.49-.85-3.75l19.74,22,1.24,1.39L2100.9,988l1.26,1.39Z"/><path class="cls-10" d="M2167.13,1434.79l126.59-113.9c5.16-4.64,19.24-7.83,31.46-7.12l162.4,9.39c12.22.71,17.93,5,12.78,9.69l-126.6,113.9c-5.16,4.64-19.24,7.83-31.45,7.12l-162.41-9.4C2167.69,1443.77,2162,1439.43,2167.13,1434.79Z"/><polygon class="cls-10" points="2502.25 1327.49 2502.25 1313.67 2168.37 1421.07 2165.49 1424.05 2165.23 1438.68 2312.74 1443.5 2502.25 1327.49"/><path class="cls-4" d="M2322.87,1299.48l159.64,9.23c12.82.75,18.81,5.29,13.4,10.17l-119,107.06c-7.79,7-29.06,11.83-47.5,10.76l-143-8.28c-13.58-.78-19.93-5.6-14.2-10.76L2297,1305.34C2301.24,1301.52,2312.82,1298.9,2322.87,1299.48Z"/><path class="cls-5" d="M2502.2,1313.69c-.54-3-5.94-5.3-14.61-5.81l-162.41-9.4c-12.22-.71-26.29,2.49-31.45,7.12l-126.59,113.89c-1.78,1.6-2.28,3.17-1.65,4.55h0c.88,1.94,3.91,3.54,8.63,4.45h0a47.11,47.11,0,0,0,5.77.69l142.73,8.26h0l19.68,1.13c12.21.71,26.3-2.48,31.44-7.12l88-79.18h0l31.59-28.42,7-6.29a4.74,4.74,0,0,0,1.9-3.37A2.73,2.73,0,0,0,2502.2,1313.69Zm-7.45,3.54-6.64,6h0l-44.92,40.44-.07.06-73.27,65.91h0l-1.39,1.25h0l-.29.26c-3.85,3.47-14.36,5.84-23.47,5.31l-.66,0H2344l-17.95-1.05-143.75-8.31a30.66,30.66,0,0,1-5.64-.82c-5.06-1.26-6.84-3.76-3.9-6.42l.28-.24,0,0,1.39-1.25,124.9-112.39c3.85-3.45,14.38-5.83,23.5-5.31l162.39,9.39c7.75.45,12,2.86,10.73,5.7A4.46,4.46,0,0,1,2494.75,1317.23Z"/><path class="cls-5" d="M2177.39,1427.91l165.3,9.56c11.11.64,23.92-2.26,28.61-6.48l1.35-1.21-201-11.64-3.25,2.93C2164.73,1424.34,2168.77,1427.41,2177.39,1427.91Z"/><path class="cls-10" d="M2562.66,1532.08l-1.19,2.67c-.81,1.78-1.6,3.53-2.4,5.25-30.54-.26-69.38,2.39-109.76,5.15-104.46,7.13-212.45,14.5-246.93-19-11.41-11.1-15.49-22.84-12.16-34.93,5.21-18.88,27.55-34.31,44.43-43.58,0,0,0,0,0,0,4.72-2.59,9-4.71,12.41-6.27h0c4.13-1.93,6.9-3,7.38-3.23l2.33,3.54,2.34,3.55c-.13,0-3.09,1.24-7.63,3.4-14.62,6.91-45.58,23.72-51.26,44.29-2.69,9.76.6,19,10.11,28.25,31.07,30.18,141.05,22.67,238.07,16C2490.51,1534.33,2531,1531.58,2562.66,1532.08Z"/><rect class="cls-11" x="761.64" y="449.15" width="1198.14" height="703.38"/><rect class="cls-2" x="761.64" y="449.15" width="1198.14" height="591.01"/><path class="cls-11" d="M1517.51,1267.11v17.09h-351.8v-17.09a47.24,47.24,0,0,0,47.1-43.55c.09-1.22.14-2.45.14-3.69v-67.34h257.32v67.34c0,1.24,0,2.47.14,3.69a47.22,47.22,0,0,0,47.1,43.55Z"/><g class="cls-12"><rect class="cls-13" x="1212.95" y="1152.53" width="257.32" height="14.07"/></g><g class="cls-12"><path class="cls-13" d="M1517.51,1267.11h-351.8a47.24,47.24,0,0,0,47.1-43.55h257.6a47.22,47.22,0,0,0,47.1,43.55Z"/></g><path class="cls-14" d="M503.46,1051.43S491,940.76,538.88,847.49c5.08-9.89,17.68-7.4,19.76,3.92C566.09,892,573.51,973,539.19,1059.15,490.35,1181.69,503.46,1051.43,503.46,1051.43Z"/><path class="cls-14" d="M560.65,1073.31s7.82-111.1,71.84-194.13c6.79-8.8,18.73-4.06,18.72,7.45,0,41.25-7.45,122.3-56.83,200.76C524.11,1199,560.65,1073.31,560.65,1073.31Z"/><path class="cls-15" d="M528.79,1051.19s.23-111.38,58.43-198.58c6.18-9.25,18.41-5.34,19.19,6.14,2.77,41.16.91,122.54-43,204.18C500.92,1179.1,528.79,1051.19,528.79,1051.19Z"/><path class="cls-15" d="M566.42,1056.81s22-84.13,83-138.64c6.47-5.78,15-.42,13.3,8.41-6,31.65-23.31,92.78-72.48,145.88C520.31,1148,566.42,1056.81,566.42,1056.81Z"/><path class="cls-14" d="M484.25,1064.41s12.47-110.68-35.42-204c-5.07-9.89-17.68-7.39-19.76,3.92C421.63,905,414.2,986,448.52,1072.13,497.36,1194.67,484.25,1064.41,484.25,1064.41Z"/><path class="cls-14" d="M427.06,1086.29s-7.82-111.1-71.84-194.13c-6.79-8.8-18.73-4.07-18.72,7.44,0,41.26,7.45,122.31,56.83,200.77C463.6,1212,427.06,1086.29,427.06,1086.29Z"/><path class="cls-15" d="M458.92,1064.16s-.23-111.37-58.43-198.58c-6.17-9.24-18.41-5.33-19.19,6.15-2.77,41.16-.91,122.53,43,204.17C486.79,1192.08,458.92,1064.16,458.92,1064.16Z"/><path class="cls-15" d="M523.75,1070.15s21-109.38-19.52-206.07c-4.3-10.25-17.06-8.75-20,2.38-10.56,39.88-24.24,120.11,3.31,208.62C526.74,1201,523.75,1070.15,523.75,1070.15Z"/><path class="cls-15" d="M421.29,1069.79s-22-84.13-83-138.64c-6.47-5.78-15-.43-13.29,8.4,6,31.65,23.3,92.78,72.47,145.89C467.41,1161,421.29,1069.79,421.29,1069.79Z"/><path class="cls-5" d="M349.92,1048.2H646.55a0,0,0,0,1,0,0v114.24a90.66,90.66,0,0,1-90.66,90.66H435.82a90.66,90.66,0,0,1-90.66-90.66V1053A4.76,4.76,0,0,1,349.92,1048.2Z"/><rect class="cls-4" x="777.17" y="464.71" width="1164.71" height="553.16"/><g class="cls-16"><rect class="cls-17" x="804.62" y="490.24" width="249.73" height="249.73"/></g><g class="cls-16"><rect class="cls-17" x="804.62" y="767.46" width="249.73" height="227.52"/></g><g class="cls-16"><rect class="cls-17" x="1102.73" y="796.1" width="804.31" height="198.88"/></g><rect class="cls-18" x="1102.73" y="490.23" width="514.1" height="281.35"/><path class="cls-19" d="M1592.39,567V771.58H1102.73V618.82H1121v9.48h15v-5.51H1150V601h6.94V590.76h1V601h16.65v-19.1h1.64V601h11v-.27h0v-2.42h0V596h0v-3.82h0v-2.44h0V585.9h0v-2.44h0v-3.82h0V577h0v-3.82h0v-3.34h0V566h0v-2.52h3.28v-2.86h.52v2.86h24.32v-2.86h.52v2.86h4.44v20h3.1v-3.82h0V577h0v-3.82h0v-2.62h0v-3.81h0v0h29.48v0H1258l.79.29v21.8h21.54v28.62h17.41V564.53h3.79v-3.7h.68v3.7H1316v-3.7h.68v3.7h19.47v-3.7h.68v3.7h12.25v-3.7h.68v3.7h5v49.4H1374v-8l22.69.07v-13h4.57v-2.55h.6v2.55h21v-2.56h.6v2.56h4.23v25.75h27v9.48h15v-5.51h13.92V601h7V590.76h1V601h16.65v-19.1H1510V601h11v-.27h0v-2.42h0V596h0v-3.82h0v-2.44h0V585.9h0v-2.44h0v-3.82h0V577h0v-3.82h0v-3.34h0V566h0v-2.52h3.29v-2.86h.52v2.86h24.31v-2.86h.53v2.86h4.43v20h3.1v-3.82h0V577h0v-3.82h0v-2.62h0v-3.81h0v0h29.48v0h5.06Z"/><rect class="cls-20" x="1311.27" y="564.54" width="43.5" height="8.37"/><rect class="cls-20" x="1521.04" y="563.49" width="20.29" height="5.08"/><rect class="cls-20" x="1521.04" y="571.32" width="20.29" height="5.09"/><rect class="cls-20" x="1521.04" y="579.31" width="20.29" height="5.09"/><rect class="cls-20" x="1521.04" y="587.43" width="20.29" height="5.08"/><rect class="cls-20" x="1521.04" y="595.26" width="20.29" height="5.09"/><rect class="cls-20" x="1521.04" y="603.88" width="20.29" height="5.09"/><rect class="cls-20" x="1521.04" y="611.71" width="20.29" height="5.08"/><rect class="cls-20" x="1521.04" y="619.7" width="20.29" height="5.09"/><rect class="cls-20" x="1521.04" y="627.81" width="20.29" height="5.08"/><rect class="cls-20" x="1521.04" y="635.65" width="20.29" height="5.08"/><rect class="cls-20" x="1187.05" y="563.49" width="21.75" height="5.08"/><rect class="cls-20" x="1187.05" y="571.32" width="21.75" height="5.09"/><rect class="cls-20" x="1187.05" y="579.31" width="21.75" height="5.09"/><rect class="cls-20" x="1187.05" y="587.43" width="21.75" height="5.08"/><rect class="cls-20" x="1187.05" y="595.26" width="21.75" height="5.09"/><rect class="cls-20" x="1187.05" y="603.88" width="21.75" height="5.09"/><rect class="cls-20" x="1187.05" y="611.71" width="21.75" height="5.08"/><rect class="cls-20" x="1187.05" y="619.7" width="21.75" height="5.09"/><rect class="cls-20" x="1187.05" y="627.81" width="21.75" height="5.08"/><rect class="cls-20" x="1187.05" y="635.65" width="21.75" height="5.08"/><rect class="cls-20" x="1223.88" y="566.82" width="24.72" height="5.09"/><rect class="cls-20" x="1223.88" y="574.65" width="24.72" height="5.08"/><rect class="cls-20" x="1223.88" y="582.64" width="24.72" height="5.08"/><rect class="cls-20" x="1223.88" y="590.76" width="24.72" height="5.09"/><rect class="cls-20" x="1223.88" y="598.59" width="24.72" height="5.08"/><rect class="cls-20" x="1223.88" y="606.76" width="24.72" height="5.09"/><rect class="cls-20" x="1223.88" y="614.59" width="24.72" height="5.08"/><rect class="cls-20" x="1223.88" y="622.58" width="24.72" height="5.08"/><rect class="cls-20" x="1223.88" y="630.69" width="24.72" height="5.09"/><rect class="cls-20" x="1223.88" y="638.53" width="24.72" height="5.09"/><path class="cls-21" d="M1548.51,545.89h-1.91v-.15l.58-5.1a.33.33,0,0,1,.32-.29h.06a.51.51,0,0,1,.29.13.47.47,0,0,1,.16.32Z"/><path class="cls-22" d="M1546.78,544.73h-.07l.48-4.09a.33.33,0,0,1,.32-.29h.06l0,0a.48.48,0,0,1,.14.35l0,2.94A1,1,0,0,1,1546.78,544.73Z"/><rect class="cls-21" x="1546.04" y="568.56" width="3.68" height="162.64"/><rect class="cls-23" x="1546.04" y="568.56" width="1.7" height="162.64"/><rect class="cls-21" x="1542.02" y="705.25" width="11.73" height="43.03"/><rect class="cls-23" x="1542.02" y="705.25" width="6.99" height="43.03"/><path class="cls-21" d="M1554.29,548.34c0,2-3,3.64-6.74,3.64l-.84,0c-3.32-.22-5.9-1.75-5.9-3.61s2.58-3.39,5.9-3.61l.84,0C1551.27,544.7,1554.29,546.33,1554.29,548.34Z"/><path class="cls-23" d="M1550.8,548.34c0,1.62-1.68,3-4.09,3.61-3.32-.22-5.9-1.75-5.9-3.61s2.58-3.39,5.9-3.61C1549.12,545.33,1550.8,546.72,1550.8,548.34Z"/><polygon class="cls-23" points="1553.73 571.77 1542 571.77 1537.87 551.85 1557.24 551.85 1553.73 571.77"/><rect class="cls-21" x="1536.82" y="550.35" width="21.46" height="1.91"/><rect class="cls-23" x="1536.82" y="550.35" width="13.49" height="1.91"/><path class="cls-24" d="M1543.94,705.25h7.49l-1.09-3.33a.73.73,0,0,0-.69-.49h-3.51a1,1,0,0,0-.87.58Z"/><polygon class="cls-25" points="1539.25 552.82 1555.8 552.82 1552.57 570.72 1543.07 570.72 1539.25 552.82"/><polygon class="cls-21" points="1556.91 550.35 1538.19 550.35 1539.72 548.16 1555.46 548.16 1556.91 550.35"/><polygon class="cls-23" points="1552.3 550.35 1538.19 550.35 1539.72 548.16 1550.85 548.16 1552.3 550.35"/><path class="cls-14" d="M1221,748.46l-118.27,0V719.54l1.15.56c16.14,8.22,14,19.16,34,15.15s36.46-5.69,45.4,0,15.52,3.43,26.64,3.39C1219.15,738.61,1220.72,746,1221,748.46Z"/><polygon class="cls-26" points="1245.55 715.38 1132.85 715.38 1127.64 688.89 1240.13 688.89 1245.55 715.38"/><polygon class="cls-27" points="1247.47 715.38 1134.78 715.38 1129.57 688.89 1242.06 688.89 1247.47 715.38"/><path class="cls-26" d="M1132.85,715.38h33.26a0,0,0,0,1,0,0v3.24a0,0,0,0,1,0,0h-30.8a2.47,2.47,0,0,1-2.47-2.47v-.78A0,0,0,0,1,1132.85,715.38Z"/><rect class="cls-28" x="1165.86" y="715.38" width="102.35" height="3.24"/><path class="cls-28" d="M1139.58,718.62l-1.93,7.59h0l-5.71,22.48a.68.68,0,0,1-.64.5.93.93,0,0,1-.91-1.1l5.1-26.21.63-3.26Z"/><path class="cls-26" d="M1137.65,726.21c.18-3.89-2.16-4.33-2.16-4.33l.63-3.26h3.46Z"/><path class="cls-28" d="M1164,718.62l-1.93,7.59h0l-5.71,22.48a.67.67,0,0,1-.64.5.92.92,0,0,1-.9-1.1l5.09-26.21.64-3.26Z"/><path class="cls-26" d="M1162.09,726.21c.19-3.89-2.16-4.33-2.16-4.33l.64-3.26H1164Z"/><path class="cls-28" d="M1258.88,718.62l1.92,7.59h0l5.72,22.48a.66.66,0,0,0,.63.5.93.93,0,0,0,.91-1.1l-5.1-26.21-.63-3.26Z"/><path class="cls-26" d="M1260.8,726.21c-.18-3.89,2.16-4.33,2.16-4.33l-.63-3.26h-3.45Z"/><path class="cls-28" d="M1234.43,718.62l1.93,7.59h0l5.71,22.48a.67.67,0,0,0,.64.5.92.92,0,0,0,.9-1.1l-5.09-26.21-.64-3.26Z"/><path class="cls-26" d="M1236.36,726.21c-.19-3.89,2.16-4.33,2.16-4.33l-.64-3.26h-3.45Z"/><path class="cls-14" d="M1173,562.71a23.17,23.17,0,0,1-10,3c-16.31,1-22,7.09-35.17,19.94-7.1,6.88-16.87,8.37-25,8.61V507c2.31,1.64,4.67,3.33,7.09,4.94,9,6,18.71,10.91,29.36,8.32s19-2.45,25.45-.37c8.25,2.6,13.66,8.26,17.54,15.2C1187.52,544.6,1182.88,557.05,1173,562.71Z"/><path class="cls-29" d="M1306.25,531.85a7.32,7.32,0,1,1,7.31,7.31A7.31,7.31,0,0,1,1306.25,531.85Z"/><path class="cls-29" d="M1426.64,525.34s6.35-10.21,21.54-9.07c0,0,22.06-17,45.58-2.27,0,0,25-3.66,43.52,3.16,12.34,4.55,16.42,9.32,16.42,9.32Z"/><g class="cls-30"><path class="cls-29" d="M1502.54,551.58s4.16-6.68,14.09-5.94c0,0,14.43-11.13,29.82-1.48,0,0,16.35-2.39,28.46,2.07,8.07,3,10.74,6.09,10.74,6.09Z"/></g><g class="cls-30"><path class="cls-29" d="M1192.22,547s4.16-6.68,14.1-5.93c0,0,14.42-11.14,29.81-1.49,0,0,16.35-2.39,28.46,2.07,8.08,3,10.74,6.09,10.74,6.09Z"/></g><rect class="cls-21" x="1102.73" y="748.28" width="514.1" height="23.3"/><path class="cls-11" d="M1426.64,741.16a21.87,21.87,0,0,1,4.35-18c6.88-8.89,18.52-6.5,18.52-6.5s1.63,2.5-1.59,4.48-14.43-2-17.25,17.49C1430.67,738.6,1429.32,742.62,1426.64,741.16Z"/><path class="cls-31" d="M1339.47,609.64a4.14,4.14,0,1,1,4.14,4.14A4.14,4.14,0,0,1,1339.47,609.64Z"/><path class="cls-21" d="M1439.77,735.73a5.82,5.82,0,1,1,5.82,5.81A5.83,5.83,0,0,1,1439.77,735.73Z"/><path class="cls-21" d="M1310.92,731.29a8.9,8.9,0,1,1,8.9,8.9A8.91,8.91,0,0,1,1310.92,731.29Z"/><rect class="cls-32" x="1276.46" y="663.44" width="103.96" height="3.55" transform="translate(488.9 1890.96) rotate(-82.19)"/><polygon class="cls-31" points="1325.07 617.04 1325.07 613.06 1343.17 609.1 1344.36 612.45 1325.07 617.04"/><path class="cls-33" d="M1320.11,748.18a16.57,16.57,0,1,1,16.57-16.57A16.59,16.59,0,0,1,1320.11,748.18Zm0-29.79a13.22,13.22,0,1,0,13.22,13.22A13.23,13.23,0,0,0,1320.11,718.39Z"/><path class="cls-33" d="M1445.59,747.84a12.11,12.11,0,1,1,12.11-12.11A12.12,12.12,0,0,1,1445.59,747.84Zm0-21.56a9.45,9.45,0,1,0,9.44,9.45A9.46,9.46,0,0,0,1445.59,726.28Z"/><rect class="cls-32" x="1342.8" y="736.05" width="87.59" height="6.62" rx="2.67"/><path class="cls-32" d="M1428.67,742.71a1.35,1.35,0,0,1-1.26-.92,1.33,1.33,0,0,1,.84-1.68l16.92-5.64A1.33,1.33,0,0,1,1446,737l-16.92,5.65A1.48,1.48,0,0,1,1428.67,742.71Z"/><polygon class="cls-32" points="1324.69 690.84 1353.04 736.19 1360.24 736.19 1326.2 682.41 1324.69 690.84"/><path class="cls-33" d="M1326.31,717.06l-2.6-.79-2.71,8.91a6.55,6.55,0,0,1-6.82,4.61l-8.6-.72-.23,2.71,8.63.73a11.51,11.51,0,0,1,8.74,5.27l4.57,7.15,2.29-1.46-4.41-6.91a13.06,13.06,0,0,1-1.49-10.85Z"/><path class="cls-33" d="M1449.49,726.45l-1.69-.51-1.77,5.79a4.27,4.27,0,0,1-4.42,3l-5.6-.48-.14,1.76,5.6.48a7.46,7.46,0,0,1,5.68,3.42l3,4.65,1.49-.95-2.87-4.49a8.5,8.5,0,0,1-1-7Z"/><path class="cls-11" d="M1444,735.51a1.34,1.34,0,1,1,1.34,1.33A1.34,1.34,0,0,1,1444,735.51Z"/><path class="cls-11" d="M1318.49,731.29a1.33,1.33,0,1,1,1.33,1.33A1.34,1.34,0,0,1,1318.49,731.29Z"/><path class="cls-11" d="M1309.67,714.12a21.85,21.85,0,0,1,18.44-1.94c10.68,3.49,12.33,15.27,12.33,15.27s-1.81,2.37-4.75,0-3-14.26-22.26-10.4C1313.43,717.05,1309.18,717.13,1309.67,714.12Z"/><path class="cls-34" d="M1383.49,510.64s-13.41,21.56-13.41,27.42,4.27,12.58,4.27,12.58l13.57-11.26,6.75-12.12Z"/><path class="cls-35" d="M1394.09,542.27s-4.53,8.16-12.62,6.71a23.35,23.35,0,0,1-3-6.48c-.08-.35-.15-.69-.22-1-.67-3.23-1.14-5-1.14-5h0c.31-.21,10.56-7,10.62-6.59C1389.3,538.66,1394.09,542.27,1394.09,542.27Z"/><path class="cls-36" d="M1373.62,536.94s12.44,4.17,14.92-3.62,5.74-12.5-2.1-15.48-10.33-.51-11.79,1.88S1370.44,535.66,1373.62,536.94Z"/><path class="cls-37" d="M1359.5,736.18H1380a2.41,2.41,0,0,0,.43-.12c1.37-.69.94-5.93.78-7.55,0-.3-.06-.47-.06-.47s-7.2-5.77-8.2-1.36c0,.14-.06.28-.1.41h0c-1.25,4.13-6.85,6-10.08,6.53C1360.31,734,1359.67,735.46,1359.5,736.18Z"/><path class="cls-37" d="M1399.64,736.18h20.5a2.33,2.33,0,0,0,.44-.12c1.37-.69.94-5.93.77-7.55,0-.3,0-.47,0-.47s-7.21-5.77-8.2-1.36c0,.14-.07.28-.11.41h0c-1.25,4.13-6.85,6-10.08,6.53C1400.44,734,1399.8,735.46,1399.64,736.18Z"/><path class="cls-11" d="M1363.64,618s1.09,13.66,2.38,30.08c1.75,22.31,3.85,49.71,4.06,54.9.36,9,2.78,24.16,2.78,24.16s1.45,2.39,8.3.95c0,0,7.1-20.28,8.84-42.06l.09-1.07c1.62-22.17,4.14-68.85,4.14-68.85Z"/><path class="cls-31" d="M1363.64,618s1.09,13.66,2.38,30.08l24,38,.09-1.07c1.62-22.17,4.14-68.85,4.14-68.85Z"/><path class="cls-11" d="M1368.64,619.57s13.44,51.5,26.42,74.75,17.61,33.6,17.61,33.6,7.95,2.14,8.63.12c0,0-6.8-55.34-12.07-68.28-2.72-6.71-4-27.3-4.27-33.79s-4.83-15.32-4.83-15.32Z"/><path class="cls-21" d="M1364.21,639.64c25,12.34,52.26,8.35,52.21,7.5s-10.4-56-14-72c-3.34-15-7.85-28.05-12-31-.55-.37-3.83,1.32-6.85,2.88a12.58,12.58,0,0,1-8.28,1.17,19.69,19.69,0,0,0-2.16,3.76c-1.67,4.09-10.44,32.06-10.55,36.89,0,.29,0,.58,0,.87,0,1.4,0,2.8-.08,4.2C1362.45,595.42,1363.93,639.5,1364.21,639.64Z"/><path class="cls-38" d="M1363.28,618.64c24.54-13.76,22.11-45.44,22.11-45.44l-22.92,20.63c0,1.59,0,3.18,0,4.74,0,1.18,0,2.34,0,3.49v.15c0,.43,0,.89,0,1.32C1362.45,605.45,1363.25,616.89,1363.28,618.64Z"/><path class="cls-36" d="M1338.53,609.19c-1.22-2.11-.26-3-.26-3s20.26-14.88,21.86-16.4,9.56-26.22,9.56-26.22,2.78-10,8.6-10.94c5.07-.81,8.47,1.78,10.65,4.77a10.72,10.72,0,0,1,.36,12.09c-5.32,8.36-16,24.95-19.09,27.74-6.83,6.22-28.81,13.71-28.81,13.71A3.67,3.67,0,0,1,1338.53,609.19Z"/><path class="cls-39" d="M1387.9,535.45c.16.12,2.82,1.22,9-8.63a9,9,0,0,0,.23-8.27c-1.61-3.28-8.11-6.33-13.6-7.91s-7.12,1.44-8.73,4.48-5.93,5.55-5.93,5.55c4.57,3.14,10.73-.17,12.68.64s2.37,4.06,2.43,5.09.21,1.89,2.82,1.22.81,3.69.33,4.51C1387.09,532.13,1386.54,534.38,1387.9,535.45Z"/><path class="cls-21" d="M1383.49,510.64s6.86,11.73,7.08,16.74-15.29,20.73-15.29,20.73,13.3,3.49,18.77,0c0,0,12.66-17.63,12.66-20.85S1399.3,510.83,1383.49,510.64Z"/><path class="cls-38" d="M1371.38,617.47s12,2,19.61.87l-.17,12.1-9.63,3.69-9.81-5.44Z"/><path class="cls-36" d="M1338.22,606.16s-7.76.4-9.32,1.85-4.61,4.23-2.3,4.72l5.57-1.22c2.85.67,3.88,2.21,5.7,1.25l3.79-2Z"/><path class="cls-11" d="M1319.62,614.5a4.15,4.15,0,1,1,4.15,4.14A4.14,4.14,0,0,1,1319.62,614.5Z"/><path class="cls-11" d="M1431.9,585.34a8.18,8.18,0,0,1-.23,1.57c-1.63,6.22-22.67,10.92-25,8.67a9.32,9.32,0,0,1-1.37-1.8c-6-9.86-13.59-45.73-10.6-43.6a60.54,60.54,0,0,1,10.19-2.19l.81-.06h0a9.56,9.56,0,0,1,3.68.33c3.91,1.45,7,11.67,7,11.67a26.77,26.77,0,0,1,6.1-.1c.35,0,.7.09,1,.16h0a6.07,6.07,0,0,1,2.27.9C1428.29,562.64,1432.32,578.6,1431.9,585.34Z"/><path class="cls-11" d="M1397.32,549.66s-7.21-6.89-19.3-4.43l-2.74,2.88s12.12-2.91,18.81,3.47Z"/><path class="cls-11" d="M1376.34,582.51s7.21,12.81,26.91,6.45l2,4.82s-23.42,6.66-31.33-6.24Z"/><path class="cls-21" d="M1378.93,550.64s-5-.57-6.84,4.09c-1.32,3.33-4.26,19-10.91,30.37-2.66,4.57-12.81,13.49-17,16.74,0,0,1.54,4.95,4.85,6.27,0,0,16,1.62,26.53-10.35,3-3.4,20.9-32.56,17.21-38.58S1378.93,550.64,1378.93,550.64Z"/><path class="cls-31" d="M1405.7,547.93c-.72.69-2.12,2.52-1.65,6a31.42,31.42,0,0,0,2.15,8.08l-.53.24a32.88,32.88,0,0,1-2.19-8.24,7.66,7.66,0,0,1,1.38-6Z"/><path class="cls-31" d="M1426.06,585.48l-.55.18c-.24-.77-5.83-18.81-5.45-22.13a4.67,4.67,0,0,1,2.46-3.7c.35,0,.7.09,1,.16a4.15,4.15,0,0,0-2.93,3.61C1420.26,566.8,1426,585.29,1426.06,585.48Z"/><path class="cls-31" d="M1401,577.54l5,14.1s6.89.2,11.1-2.68l-4.59-14.49S1408.61,577.41,1401,577.54Z"/><path class="cls-31" d="M1431.9,585.34a8.18,8.18,0,0,1-.23,1.57c-1.63,6.22-22.67,10.92-25,8.67a9.32,9.32,0,0,1-1.37-1.8C1405.46,593.77,1417.41,593.36,1431.9,585.34Z"/><path class="cls-40" d="M1401,577.54l1.46,4.14,6.58.45,4.72-3.62-1.28-4A99.94,99.94,0,0,0,1401,577.54Z"/><path class="cls-32" d="M1408,580.88a.41.41,0,0,1,.41-.41.41.41,0,0,1,.42.41.42.42,0,0,1-.42.42A.41.41,0,0,1,1408,580.88Z"/><rect class="cls-21" x="1139.43" y="820.67" width="616.64" height="15.51"/><rect class="cls-21" x="1139.43" y="851.97" width="616.64" height="15.5"/><rect class="cls-21" x="1414.15" y="883.27" width="341.92" height="15.5"/><rect class="cls-21" x="1344.24" y="914.56" width="265.16" height="15.51"/><rect class="cls-21" x="1414.15" y="945.86" width="341.92" height="15.51"/><rect class="cls-21" x="822.58" y="695" width="163.3" height="7.75"/><rect class="cls-21" x="1001.63" y="695" width="17.97" height="17.97"/><rect class="cls-41" x="883.65" y="695" width="74.92" height="7.75"/><rect class="cls-21" x="822.58" y="652.5" width="163.3" height="7.74"/><rect class="cls-21" x="1001.63" y="652.5" width="17.97" height="17.97"/><rect class="cls-41" x="843.96" y="652.5" width="52.18" height="7.74"/><rect class="cls-21" x="822.58" y="610" width="163.3" height="7.74"/><rect class="cls-38" x="1001.63" y="610" width="17.97" height="17.97"/><rect class="cls-38" x="903.39" y="610" width="52.18" height="7.74"/><rect class="cls-21" x="822.58" y="567.5" width="163.3" height="7.74"/><rect class="cls-38" x="1001.63" y="567.5" width="17.97" height="17.97"/><rect class="cls-38" x="843.96" y="567.5" width="79.38" height="7.74"/><rect class="cls-21" x="822.58" y="525" width="163.3" height="7.74"/><rect class="cls-41" x="1001.63" y="525" width="17.97" height="17.97"/><rect class="cls-41" x="899.62" y="525" width="69.6" height="7.74"/><rect class="cls-21" x="896.14" y="791.62" width="15.86" height="15.86"/><rect class="cls-21" x="924.48" y="791.62" width="15.86" height="15.86"/><rect class="cls-21" x="951.29" y="793.66" width="82.71" height="5.89"/><polygon class="cls-21" points="872.46 789.63 885.47 799.54 872.46 807.13 872.46 789.63"/><rect class="cls-38" x="896.14" y="821.96" width="15.86" height="15.86"/><rect class="cls-21" x="924.48" y="821.96" width="15.86" height="15.86"/><rect class="cls-21" x="951.29" y="824.01" width="82.71" height="5.88"/><polygon class="cls-21" points="872.46 819.98 885.47 829.89 872.46 837.48 872.46 819.98"/><rect class="cls-41" x="896.14" y="852.31" width="15.86" height="15.86"/><rect class="cls-21" x="924.48" y="852.31" width="15.86" height="15.86"/><rect class="cls-21" x="951.29" y="854.35" width="82.71" height="5.88"/><polygon class="cls-21" points="872.46 850.33 885.47 860.24 872.46 867.83 872.46 850.33"/><rect class="cls-41" x="896.14" y="882.66" width="15.86" height="15.86"/><rect class="cls-21" x="924.48" y="882.66" width="15.86" height="15.86"/><rect class="cls-21" x="951.29" y="884.7" width="82.71" height="5.89"/><polygon class="cls-21" points="872.46 880.67 885.47 890.59 872.46 898.17 872.46 880.67"/><rect class="cls-38" x="896.14" y="913" width="15.86" height="15.86"/><rect class="cls-21" x="924.48" y="913" width="15.86" height="15.86"/><rect class="cls-21" x="951.29" y="915.05" width="82.71" height="5.89"/><polygon class="cls-21" points="872.46 911.02 885.47 920.93 872.46 928.52 872.46 911.02"/><rect class="cls-38" x="896.14" y="943.35" width="15.86" height="15.86"/><rect class="cls-21" x="924.48" y="943.35" width="15.86" height="15.86"/><rect class="cls-21" x="951.29" y="945.39" width="82.71" height="5.88"/><polygon class="cls-21" points="872.46 941.37 885.47 951.28 872.46 958.87 872.46 941.37"/><g class="cls-30"><path class="cls-17" d="M820.11,798.38S824.3,793,830,793s9.36,5.4,9.36,5.4a11.28,11.28,0,0,1-9.36,5.41A11.91,11.91,0,0,1,820.11,798.38Z"/><path class="cls-42" d="M826,798.38a3.74,3.74,0,1,1,3.74,3.74A3.74,3.74,0,0,1,826,798.38Z"/><path class="cls-17" d="M827.43,798.38a2.29,2.29,0,1,1,2.29,2.29A2.29,2.29,0,0,1,827.43,798.38Z"/></g><g class="cls-30"><path class="cls-17" d="M820.11,828.73s4.19-5.41,9.86-5.41,9.36,5.41,9.36,5.41a11.28,11.28,0,0,1-9.36,5.4A11.91,11.91,0,0,1,820.11,828.73Z"/><path class="cls-42" d="M826,828.73a3.74,3.74,0,1,1,3.74,3.74A3.73,3.73,0,0,1,826,828.73Z"/><path class="cls-17" d="M827.43,828.73a2.29,2.29,0,1,1,2.29,2.28A2.3,2.3,0,0,1,827.43,828.73Z"/></g><g class="cls-30"><path class="cls-17" d="M820.11,859.08s4.19-5.41,9.86-5.41,9.36,5.41,9.36,5.41a11.28,11.28,0,0,1-9.36,5.4A11.91,11.91,0,0,1,820.11,859.08Z"/><path class="cls-42" d="M826,859.08a3.74,3.74,0,1,1,3.74,3.74A3.74,3.74,0,0,1,826,859.08Z"/><path class="cls-17" d="M827.43,859.08a2.29,2.29,0,1,1,2.29,2.28A2.29,2.29,0,0,1,827.43,859.08Z"/></g><g class="cls-30"><path class="cls-17" d="M820.11,889.42S824.3,884,830,884s9.36,5.4,9.36,5.4a11.28,11.28,0,0,1-9.36,5.41A11.91,11.91,0,0,1,820.11,889.42Z"/><path class="cls-42" d="M826,889.42a3.74,3.74,0,1,1,3.74,3.74A3.74,3.74,0,0,1,826,889.42Z"/><path class="cls-17" d="M827.43,889.42a2.29,2.29,0,1,1,2.29,2.29A2.29,2.29,0,0,1,827.43,889.42Z"/></g><g class="cls-30"><path class="cls-17" d="M820.11,919.77s4.19-5.4,9.86-5.4,9.36,5.4,9.36,5.4a11.28,11.28,0,0,1-9.36,5.4A11.91,11.91,0,0,1,820.11,919.77Z"/><path class="cls-42" d="M826,919.77a3.74,3.74,0,1,1,3.74,3.74A3.73,3.73,0,0,1,826,919.77Z"/><path class="cls-17" d="M827.43,919.77a2.29,2.29,0,1,1,2.29,2.29A2.3,2.3,0,0,1,827.43,919.77Z"/></g><g class="cls-30"><path class="cls-17" d="M820.11,950.12s4.19-5.41,9.86-5.41,9.36,5.41,9.36,5.41a11.28,11.28,0,0,1-9.36,5.4A11.91,11.91,0,0,1,820.11,950.12Z"/><path class="cls-42" d="M826,950.12a3.74,3.74,0,1,1,3.74,3.74A3.73,3.73,0,0,1,826,950.12Z"/><path class="cls-17" d="M827.43,950.12a2.29,2.29,0,1,1,2.29,2.28A2.3,2.3,0,0,1,827.43,950.12Z"/></g><rect class="cls-11" x="1521.12" y="914.56" width="234.95" height="15.51"/><rect class="cls-11" x="1562.64" y="883.27" width="136.51" height="15.5"/><rect class="cls-11" x="1547.55" y="820.67" width="157.98" height="15.51"/><rect class="cls-38" x="1595.59" y="851.97" width="136.51" height="15.5"/><path class="cls-42" d="M1220.86,591.29c-32.28-41.25-68.2-42.7-68.56-42.7l0-.93c.37,0,36.73,1.47,69.27,43.05Z"/><path class="cls-41" d="M1148.13,548.12A3.83,3.83,0,1,1,1152,552,3.82,3.82,0,0,1,1148.13,548.12Z"/><path class="cls-41" d="M1217.39,590.61a3.84,3.84,0,1,1,3.84,3.84A3.84,3.84,0,0,1,1217.39,590.61Z"/><path class="cls-42" d="M1230.52,540.15l-.71-.6c.24-.28,24.24-27.68,77-26.94v.92C1254.42,512.82,1230.75,539.88,1230.52,540.15Z"/><path class="cls-41" d="M1227.54,543.11a3.83,3.83,0,1,1,5.39-.58A3.83,3.83,0,0,1,1227.54,543.11Z"/><path class="cls-41" d="M1304.08,515.81a3.83,3.83,0,1,1,5.39-.58A3.83,3.83,0,0,1,1304.08,515.81Z"/><path class="cls-42" d="M1475.05,540.05l-.84-.72c.27-.31,27.39-31.06,90.85-27l-.07,1.1C1502.07,509.41,1475.31,539.74,1475.05,540.05Z"/><path class="cls-41" d="M1471.68,543.36a4.34,4.34,0,1,1,6.43-.36A4.56,4.56,0,0,1,1471.68,543.36Z"/><path class="cls-41" d="M1562,516a4.34,4.34,0,1,1,6.44-.35A4.58,4.58,0,0,1,1562,516Z"/><rect class="cls-42" x="1366.04" y="554.42" width="64.43" height="0.93"/><path class="cls-43" d="M1362.2,554.88a3.84,3.84,0,1,1,3.84,3.84A3.84,3.84,0,0,1,1362.2,554.88Z"/><path class="cls-43" d="M1426.64,554.88a3.83,3.83,0,1,1,3.83,3.84A3.83,3.83,0,0,1,1426.64,554.88Z"/><rect class="cls-41" x="1494.35" y="802" width="9.29" height="9.29" transform="translate(1009.3 -823.65) rotate(45)"/><path class="cls-42" d="M1329.77,671.48c-36.68,0-75.38-6.44-106.75-13.5a830.3,830.3,0,0,1-103.09-30.47l.34-.87a828.68,828.68,0,0,0,103,30.44c52.41,11.79,125.29,21.86,174.85,2.94,49.76-19,102.44-16.25,137.87-10.6,38.39,6.11,65.37,16.87,65.63,17l-.34.86c-.27-.1-27.17-10.82-65.46-16.92-35.31-5.63-87.81-8.36-137.37,10.56C1378.37,668.55,1354.53,671.48,1329.77,671.48Z"/><path class="cls-44" d="M1404.9,657a3.84,3.84,0,1,1,3.84,3.84A3.84,3.84,0,0,1,1404.9,657Z"/><path class="cls-44" d="M1298.59,670.52a3.83,3.83,0,1,1,3.83,3.83A3.82,3.82,0,0,1,1298.59,670.52Z"/><path class="cls-42" d="M1323.23,764.38a60.84,60.84,0,0,1-25.58-5.42l.39-.84c26.43,12.15,53-.21,53.31-.34l.39.84A73.67,73.67,0,0,1,1323.23,764.38Z"/><path class="cls-41" d="M1354,761.18a3.83,3.83,0,1,1,.58-5.39A3.83,3.83,0,0,1,1354,761.18Z"/><path class="cls-41" d="M1300.26,761.52a3.83,3.83,0,1,1,.57-5.39A3.84,3.84,0,0,1,1300.26,761.52Z"/><path class="cls-42" d="M1449.93,764.38a60.79,60.79,0,0,1-25.57-5.42l.39-.84c26.43,12.14,53-.21,53.3-.34l.4.84A73.76,73.76,0,0,1,1449.93,764.38Z"/><path class="cls-41" d="M1480.66,761.18a3.83,3.83,0,1,1,.57-5.39A3.83,3.83,0,0,1,1480.66,761.18Z"/><path class="cls-41" d="M1427,761.52a3.83,3.83,0,1,1,.57-5.39A3.84,3.84,0,0,1,1427,761.52Z"/><g class="cls-45"><path class="cls-21" d="M1616.83,623.09V754.37l-46.93-6.09s-4.19-27.67,15.75-36.46C1604.2,703.66,1591.72,632.46,1616.83,623.09Z"/></g><path class="cls-41" d="M1595.32,666.82a3.83,3.83,0,1,1,3.83,3.84A3.83,3.83,0,0,1,1595.32,666.82Z"/><path class="cls-41" d="M1117.21,627.07a3.84,3.84,0,1,1,3.84,3.84A3.84,3.84,0,0,1,1117.21,627.07Z"/><g class="cls-16"><rect class="cls-17" x="1659.48" y="490.49" width="247.56" height="281.1"/></g><rect class="cls-21" x="1681.02" y="507.41" width="120.84" height="3.45"/><rect class="cls-21" x="1681.02" y="515.99" width="93.5" height="3.45"/><rect class="cls-21" x="1865.5" y="509.41" width="6.54" height="6.54"/><rect class="cls-21" x="1681.02" y="545.54" width="120.84" height="3.45"/><rect class="cls-21" x="1681.02" y="554.12" width="93.5" height="3.45"/><rect class="cls-21" x="1865.5" y="547.54" width="6.54" height="6.54"/><rect class="cls-21" x="1681.02" y="583.67" width="120.84" height="3.45"/><rect class="cls-21" x="1681.02" y="592.25" width="93.5" height="3.45"/><rect class="cls-21" x="1865.5" y="585.67" width="6.54" height="6.54"/><rect class="cls-21" x="1681.02" y="621.8" width="120.84" height="3.45"/><rect class="cls-21" x="1681.02" y="630.38" width="93.5" height="3.45"/><rect class="cls-21" x="1865.5" y="623.8" width="6.54" height="6.54"/><rect class="cls-21" x="1681.02" y="659.93" width="120.84" height="3.45"/><rect class="cls-21" x="1681.02" y="668.51" width="93.5" height="3.45"/><rect class="cls-21" x="1865.5" y="661.93" width="6.54" height="6.54"/><rect class="cls-21" x="1865.5" y="696.51" width="6.54" height="6.54"/><rect class="cls-21" x="1681.02" y="698.06" width="120.84" height="3.45"/><rect class="cls-21" x="1681.02" y="706.64" width="93.5" height="3.45"/><rect class="cls-21" x="1681.02" y="736.19" width="120.84" height="3.45"/><rect class="cls-21" x="1681.02" y="744.77" width="93.5" height="3.45"/><rect class="cls-21" x="1865.5" y="738.19" width="6.54" height="6.54"/><path class="cls-46" d="M1764.23,1332.64s-17.27,42.7-11.19,47.16,27-13.68,32.54-32.82S1764.23,1332.64,1764.23,1332.64Z"/><path class="cls-36" d="M2117.31,1620.7c-76.45,0-156.26,0-231.7,0-2.9-7-6-14.39-9.22-21.89-20.92-48.73-47.17-103.59-61.78-110.12-26.88-12-43.06-1.5-76.5-40.54s-54.73-52.31-41.58-61.33,56.52,24.86,68.55,23.39c9.66-1.17,14.69-24.59,13.9-49.32a146.52,146.52,0,0,0-1.85-19.29h0c-.5-3.16-1.13-6.25-1.86-9.21a80.53,80.53,0,0,0-4.25-12.84c-3.29-7.5-3-12.64-.49-16.09,7.5-10.33,34.92-5.35,45.27-2.89,4.62,1.1,18.91-7.56,28.91-2.63,15.54,7.65,24.58-1.18,34.89,5.46,7.29,4.69,22.31,6.89,27.48,13.66,9.85,12.87,12.29,40.13,21.88,65.32,8.88,23.31,12,47.77,42.43,89.06,13.58,18.39,55.6,61.07,98,102.75C2085.87,1590.32,2102.38,1606.33,2117.31,1620.7Z"/><path class="cls-36" d="M1770.34,1303.37s-63.78,52.21-55.5,59.22,29.32.12,63.73-21.92S1770.34,1303.37,1770.34,1303.37Z"/><path class="cls-5" d="M2136.42,1620.7h-19.11c-76.45,0-156.26,0-231.7,0h-22.53l-2.62-5.42s5.31-7.19,15.93-16.47c27.87-24.38,92.27-63.22,193-24.63q6.72,2.58,13.66,5.62Z"/><path class="cls-46" d="M1094,1359.31s11.06,44.71,4.41,48.26-24.79-17.35-27.57-37.08S1094,1359.31,1094,1359.31Z"/><path class="cls-36" d="M1103.57,1477.33c-38.62,33.92-53.16,21.23-81.46,29.32-15.38,4.4-49.13,55-76.72,100.29q-3.54,5.8-6.93,11.47l-266.55-1c22.79-16.26,54.38-39,85.84-62.16,47.9-35.27,95.55-71.59,111.59-87.89,36-36.56,42.5-60.33,54.59-82.16,12.88-23.27,12.5-50.65,30.29-50.38,8.77.14,16.5-11.31,24.59-15,11.14-5.11,21.79,6.25,38.25.88,10.61-3.47,25.15,5.9,29.87,5.46,9.09-.83,31.08-4.19,41,.94,5.54,2.84,7.35,8.29,1.2,18.24a79.92,79.92,0,0,0-6,12.11q-1.53,3.76-2.83,7.82a149.74,149.74,0,0,0-4.89,19.87c-4.28,24.37-2.6,48.26,6.8,50.79,11.7,3.16,60.13-29.34,71.87-18.57S1142.2,1443.42,1103.57,1477.33Z"/><path class="cls-36" d="M1087,1326.82s96.33,28.7,91.32,38.33-55.42,8-95.62.63S1087,1326.82,1087,1326.82Z"/><path class="cls-5" d="M954.35,1618.47l-15.89-.06-266.55-1-32.28-.11,103.82-58.42c4.87-1.36,9.63-2.56,14.3-3.63,105.23-24,163.5,23.59,187.64,51.65A141.63,141.63,0,0,1,954.35,1618.47Z"/><path class="cls-5" d="M1447.7,1546.48a14,14,0,0,0,.12,1.84,15,15,0,0,0,14.94,13.22h211.82a15.06,15.06,0,1,0,0-30.12H1462.76A15.06,15.06,0,0,0,1447.7,1546.48Z"/><path class="cls-5" d="M1463.86,1528.7h72.62a2.33,2.33,0,0,0,2.31-2.32h0a2.32,2.32,0,0,0-2.31-2.31h-72.62a2.32,2.32,0,0,0-2.31,2.31h0A2.33,2.33,0,0,0,1463.86,1528.7Z"/><rect class="cls-39" x="1467.87" y="1528.7" width="7.87" height="2.73" transform="translate(2943.61 3060.12) rotate(180)"/><path class="cls-39" d="M1449.53,1553.69a15.09,15.09,0,0,0,13.23,7.85h44.87v-7.85Z"/><path class="cls-11" d="M1717.68,1542.07v8.82a10.63,10.63,0,0,1-10.65,10.65H1486.39a10.62,10.62,0,0,1-10.27-7.85,10.34,10.34,0,0,1-.38-2.8v-8.82a10.65,10.65,0,0,1,10.65-10.65H1707A10.65,10.65,0,0,1,1717.68,1542.07Z"/><path class="cls-40" d="M1717.31,1553.69a10.64,10.64,0,0,1-10.28,7.85H1486.39a10.62,10.62,0,0,1-10.27-7.85Z"/><path class="cls-9" d="M1695.76,1546.54a16.74,16.74,0,0,0,4.38,11.63l.18.18a10.72,10.72,0,0,0,7.56,3.3c4.47,0,15.54-6.74,22.4-11.21,3.42-2.23,5.79-3.9,5.79-3.9s-2.37-1.67-5.79-3.9c-6.86-4.48-17.93-11.22-22.4-11.22a10,10,0,0,0-3.71.72,12.12,12.12,0,0,0-5.1,4,16.58,16.58,0,0,0-3.07,7.37s0,.06,0,.1A18.22,18.22,0,0,0,1695.76,1546.54Z"/><path class="cls-47" d="M1695.76,1546.54a16.74,16.74,0,0,0,4.38,11.63l34-11.69-38.11-2.84A18.22,18.22,0,0,0,1695.76,1546.54Z"/><path class="cls-48" d="M1699.07,1536.17l33.88,9.25-28.78-13.28A12.12,12.12,0,0,0,1699.07,1536.17Z"/><path class="cls-49" d="M1728.07,1546.54a4.18,4.18,0,0,0,2.21,3.9c3.42-2.23,5.79-3.9,5.79-3.9s-2.37-1.67-5.79-3.9A4.16,4.16,0,0,0,1728.07,1546.54Z"/><path class="cls-31" d="M386.53,1506.68a122.58,122.58,0,0,0,27.52-3.15c35.72-8.14,73.86-32.39,101.85-77.09,0,0-5.86-30-22.7-53.54h0c-11.68-16.31-31.87-35.66-55.95-35.79A51.22,51.22,0,0,0,402.15,1350c-14.61,12.47-22.3,29.85-33.61,32.36s-23.23,8.42-33.42,16.92c-1.67,1.39-3.29,2.84-4.84,4.37h0c-.65.63-1.28,1.26-1.9,1.91a.1.1,0,0,0,0,.05c-13.71,14.37-21.79,33.93-14.95,55.5a62.34,62.34,0,0,0,7.59,15.54C333.54,1495.74,358,1506.63,386.53,1506.68Z"/><path class="cls-50" d="M425.65,1349.63s20.89-7.31,30.75,5.33-3.43,20.46-14.57,18.45S415.21,1356.53,425.65,1349.63Z"/><path class="cls-51" d="M313.38,1461.15c1.59,5,4.55,9.9,7.59,15.54,21.42,39.83,51.4,56.56,74.18,62,25.18,6,72.32-4.16,91.07-16.27,30.78-19.88,40.16-55.29,29.67-96,0,0-5.85-30-22.7-53.53h0s-13.39,68.87-91.89,91.61C365.63,1474.84,335.58,1469.77,313.38,1461.15Z"/><path class="cls-14" d="M343.8,1362.5c.4-12.53,13.86-16.86,24.84-24.85s24-28.56,24-28.56a176.3,176.3,0,0,0-38.44,6.79C333.31,1322,343.8,1362.5,343.8,1362.5Z"/><path class="cls-15" d="M343.8,1362.5c-1.55-13,4.52-31.34,12.59-37s36.27-16.39,36.27-16.39a176.3,176.3,0,0,0-38.44,6.79C333.31,1322,343.8,1362.5,343.8,1362.5Z"/><path class="cls-51" d="M368.54,1382.39c-11.16,2.47-23.23,8.42-33.42,16.92,18.38-13.78,47.74-9.09,49.47-17.67,1.86-9.2,17-30.79,17.56-31.61C387.54,1362.5,379.85,1379.88,368.54,1382.39Z"/><path class="cls-52" d="M328.37,1405.6a26.32,26.32,0,0,0,1.9-1.91C329.62,1404.32,329,1405,328.37,1405.6Z"/><path class="cls-15" d="M383.31,1382.63h0c-9.12-14-27.06-21.06-40.5-24.5-10.7-2.74-26.19-4.78-33.62-5.66a1.75,1.75,0,0,0-1.56,2.85l2.64,3.25a14.32,14.32,0,0,0,10.76,5.29c12.88.32,41.8,2.92,56.42,19.43C379.09,1385.14,385,1385.13,383.31,1382.63Z"/><rect class="cls-53" x="553.51" y="1111.02" width="15.04" height="177.27" transform="translate(-183.19 104.18) rotate(-9.13)"/><polygon class="cls-54" points="542.03 1081.33 539.55 1113.34 554.4 1110.95 542.03 1081.33"/><rect class="cls-53" x="684.19" y="1125.61" width="15.04" height="177.27" transform="translate(233.41 -105.91) rotate(10.52)"/><polygon class="cls-54" points="713.6 1096.42 700.5 1125.73 715.29 1128.48 713.6 1096.42"/><rect class="cls-53" x="665.44" y="1074.49" width="15.04" height="177.27" transform="translate(223.78 -103.36) rotate(10.52)"/><polygon class="cls-54" points="694.85 1045.3 681.75 1074.61 696.54 1077.36 694.85 1045.3"/><rect class="cls-31" x="595.23" y="1184.85" width="118.47" height="170.73"/><rect class="cls-11" x="536" y="1184.85" width="118.47" height="170.73"/><rect class="cls-14" x="1744.04" y="1086.13" width="143.23" height="129.05" transform="translate(246.92 -318.93) rotate(10.77)"/><rect class="cls-15" x="1744.04" y="1097.68" width="143.23" height="18.59" transform="matrix(0.98, 0.19, -0.19, 0.98, 238.77, -319.71)"/><rect class="cls-9" x="824.52" y="1069.08" width="143.23" height="129.05" transform="translate(-239.28 239.77) rotate(-13.46)"/><rect class="cls-47" x="812.81" y="1070.46" width="143.23" height="28.38" transform="translate(-228.2 235.68) rotate(-13.46)"/><rect class="cls-55" x="1844.14" y="988.09" width="143.23" height="129.05" transform="translate(-152.86 346.25) rotate(-9.93)"/><rect class="cls-56" x="1835.45" y="988.85" width="143.23" height="28.38" transform="translate(-144.43 344) rotate(-9.93)"/></svg>